<?xml version="1.0" encoding="iso-8859-1"?>
<!-- Generator: Adobe Illustrator 19.2.1, SVG Export Plug-In . SVG Version: 6.00 Build 0)  -->
<svg version="1.1" xmlns="http://www.w3.org/2000/svg" xmlns:xlink="http://www.w3.org/1999/xlink" x="0px" y="0px"
	 viewBox="0 0 720 386.143" style="enable-background:new 0 0 720 386.143;" xml:space="preserve">
<g id="Layer_12">
	<path d="M719.42,245.446c-0.605-0.821-1.543-1.208-1.979-2.206c-0.562-1.284-0.617-2.805-1.144-4.129
		c-0.472-1.185-1.131-2.22-1.802-3.293c-0.685-1.094-1.942-1.696-1.164-3.538c0.408-0.967,1.696-1.416,2.363-2.082
		c1.054-1.052,0.844-1.748-0.068-3.02c-0.733-1.022-1.945-1.598-2.666-2.545c-1.921-2.521,4.073-2.307,5.269-2.372
		c0.531-0.029,0.728-0.6,0.41-0.99c-1.986-2.436-3.912-4.946-5.958-7.336c-0.006-0.706-0.069-1.409-0.248-2.095
		c-0.149-0.57-0.328-0.91-0.566-1.447c-0.708-1.593-0.883-2.598-0.286-3.857c0.612,0.079,1.321,0.206,2.143,0.353
		c2.527,0.45,3.101-0.31,2.294-2.841c-1.262-3.961-6.613-7.71-4.303-10.68c0.704-0.905,0.445-1.649-0.153-2.505
		c-0.594-0.851-2.511-1.135-1.656-2.553c0.735-1.22,3.238-0.392,4.667-0.473c6.807-0.384-5.726-7.256-7.636-18.212
		c-0.26-1.489-2.672-2.825-0.099-4.398c0.165-0.101,0.195-0.738,0.049-0.984c-1.375-2.318-1.285-5.375-3.009-7.335
		c-2.097-2.385-2.793-5.261-4.048-7.954c-0.582-1.249-0.324-1.702,1.032-1.64c5.426,0.246-1.995-6.825,4.829-6.977
		c1.656-0.037,3.29,1.218,4.275,0.037c0.749-0.899,0.229-1.715-0.265-2.535c-3.013-4.995-12.375-20.414-7.043-17.947
		c0.797,0.368,1.623,1.266,2.483,0.296c0.933-1.051,0.388-2.184-0.166-3.224c-3.42-6.416-5.604-8.796-0.802-8.765
		c0.927,0.006,1.933,0.305,2.493-0.699c0.654-1.172-0.229-1.915-0.901-2.722c-2.075-2.495-4.16-4.984-6.159-7.539
		c-1.15-1.47-2.246-2.985-0.607-4.928c1.574-1.867-6.042-11.645-7.999-16.172c-0.476-1.102-1.449-1.393-2.602-1.305
		c-1.296,0.099-1.647,0.982-2.018,2.039c-1.199,3.415,2.538,8.935-1.478,7.2c-1.306-0.565-2.53-0.06-3.371,1.101
		c-2.22,3.061,4.458,5.325,1.336,7.797c-2.448,1.938-4.334,4.546-7.22,5.973c-0.606,0.3-1.113,0.829-1.611,1.309
		c-1.432,1.381-0.437,3.555,1.623,2.844c0.878-0.303,1.751-0.764,2.649-0.83c1.349-0.099,3.27-1.487,3.831-0.399
		c0.68,1.32-1.203,2.505-2.243,3.544c-5.513,5.507-11.586,11.353-6.604,11.031c1.425-0.092,1.485-0.082,1.069,1.288
		c-0.876,2.889-0.508,3.218,2.45,2.775c0.521-0.078,1.032-0.543,1.361,0.32c1.061,2.784,0.115,7.189-2.222,9.231
		c-2.017,1.762-3.134,4.318-5.424,5.836c-1.652,1.095-0.92,4.071,1.923,2.92c1.61-0.652,3.153-1.471,4.722-2.225
		c0.419-0.202,0.872-0.463,1.288-0.135c0.501,0.395,0.053,0.839-0.1,1.22c-0.745,1.851-0.707,3.22,1.813,3.275
		c2.834,0.061-3.54,6.36-5.364,8.513c-0.648,0.765-1.688,1.515-1.195,2.695c0.547,1.308,1.701,0.835,2.718,0.632
		c0.452-0.09,1.244,0.103,0.905,0.531c-2.12,2.68-0.397,5.458-0.447,8.189c-0.1,5.537-3.36,6.616-5.175,9.518
		c-1.301,2.081,0.568,3.807,2.294,2.061c0.763-0.771,2.98-2.556,3.842-1.898c0.529,0.404-0.029,0.807-0.139,1.193
		c-1.128,3.996-4.402,6.736-6.122,10.39c-0.243,0.517-0.639,1.15-1.297,0.738c-3.65-2.291,0.926-2.063-2.529-5.363
		c-1.248-1.192-1.371-1.764,0.48-2.575c5.772-2.527-2.76-7.585-4.484-11.935c-0.337-0.851-1.074-1.648,0.718-1.693
		c1.866-0.047,1.952-1.381,1.451-2.735c-1.809-4.883-4.478-6.739-2.207-9.355c0.579-0.667-0.037-1.779-0.657-2.536
		c-2.781-3.394-5.774-6.392-5.869-10.783c-0.107-4.91-3.643-8.508-4.235-13.137c-0.189-1.476-2.747-1.555-2.701,0.521
		c0.029,1.27,0.037,2.586,0.371,3.795c2.166,7.86-5.16,20.475-8.821,25.169c-0.578,0.741-1.487,1.462-0.823,2.391
		c1.079,1.51,2.481,0.129,4.112-0.413c2.126-0.706,0.811,1.672-0.33,3.489c-2.237,3.562,2.149,2.86-0.952,5.675
		c-2.264,2.056-2.669,5.258,0.319,4.467c3.84-1.016,0.375,3.036-1.419,6.57c-0.826,1.627-0.384,2.815,1.608,2.734
		c1.181-0.048,1.196,0.203,0.678,1.058c-0.571,0.941-2.076,1.828-1.189,2.973c0.9,1.162,0.575,1.908,0.038,2.599
		c-5.25-3.422-10.504-6.826-15.749-10.235c-0.25-1.118-0.716-2.199-1.576-3.204c-0.475-0.555-0.583-1.528-0.633-2.323
		c-0.347-5.496-3.254-10.376-3.778-15.824c-0.225-2.332-3.012-2.528-3.049-0.093c-0.044,2.914,1.043,4.614,0.835,6.874
		c-0.261,2.833-0.77,5.657-1.101,8.488c-2.984-1.963-5.951-3.95-8.913-5.946c-0.611-2.902-0.586-4.179-2.056-5.227v-1.049
		c0-1.406-1.644-1.753-2.459-1.042c-1.608,0.613-0.447,2.139-0.447,3.948c-6.736-4.609-13.406-9.314-19.949-14.222
		c0.595-3.627,0.031-9.289-2.297-12.236c-0.359-0.454-1.292-0.576-1.761-0.227c-2.126,1.583-0.762,4.388-1.307,8.889
		c-1.132-0.33-2.357-0.288-3.459,0.233c-6.74,3.189-35.762-14.965-52.564-23.843c-46.708-24.684-2.495-1.543-43.915-26.081
		c-14.861-8.803-12.059-12.039-22.626-16.391c-15.614-6.431-30.714-13.933-45.674-21.726c-14.253-7.424-9.306-8.888-23.005-17.366
		c-10.019-6.2-22.017-36.25-29.474-35.3c-11.463,10.096-26.739,28.326-38.49,25.747c-7.561-1.659-14.326-1.75-19.228,5.954
		c-2.153,3.383-5.624,6.007-8.818,7.925c-2.799,0.322-4.824-1.836-7.537-0.498c-2.517,5.991-5.174,4.86-33.823,38.794
		c-8.945,10.595-16.009,14.811-27.666,16.211c-2.307,3.214-5.701,5.03-9.506,6.538c-6.787,2.689-11.094,8.605-16.037,13.55
		c-12.698,12.7-27.279,23.246-40.275,35.592c-1.685,1.601-3.742,2.312-6.221,2.51c-6.539,0.522-11.835,5.099-18.213,6.132
		c-11.455,1.855-22.672,4.911-34.387,5.545c-6.79,0.367-14.338,4.329-21.933,8.769c-1.592-1.863-3.577-3.805-4.515-5.981
		c-1.212-2.811-1.272-2.785,1.778-3.3c5.907-0.998-2.836-7.841,2.369-6.442c2.353,0.632,3.505-1.68,1.143-3.128
		c-2.3-1.41-4.253-3.242-6.103-5.158c-0.915-0.948-2.578-2.013-1.974-3.361c0.499-1.114,2.065,0.085,3.168,0.114
		c2.223,0.059,2.733-0.599,1.877-2.681c-2.743-6.672-3.976-3.494-6.509-9.706c-0.249-0.612-0.18-1.028,0.428-1.442
		c2.745-1.867,2.887-2.524,0.234-4.427c-2.154-1.545-2.904-3.848-4.119-5.919c-0.662-1.128-0.062-1.491,1.02-1.324
		c1.032,0.159,2.087,0.292,3.067,0.627c3.002,1.027,5.36,2.971,6.282,1.019c0.477-1.011-0.733-2.285-1.606-2.764
		c-3.811-2.09-6.873-5.121-10.055-7.993c-1.094-0.987-2.661-1.444-3.302-2.934c3.933-0.813,10.255-1.101,0.636-6.948
		c-2.859-1.738-4.993-3.766-4.17-7.554c0.218-1.003,0.086-2.23-1.293-2.456c-1.395-0.229-1.558,1.021-2.055,1.919
		c-2.34,4.218-4.368,8.73-9.628,10.255c-2.096,0.607-2.368,3.535,0.649,3.836c1.935,0.193,3.066-0.365,1.745,1.674
		c-0.832,1.284-2.032,2.214-3.248,3.121c-0.749,0.559-1.605,1.225-1.106,2.28c0.502,1.062,1.663,1.004,2.426,0.52
		c1.829-1.16,1.977,0.561,2.774,1.343c1.299,1.273-0.066,1.828-0.625,2.496c-2.456,2.935-4.985,5.809-7.477,8.713
		c-0.615,0.717-1.275,1.495-0.422,2.429c0.653,0.715,1.489,0.516,2.248,0.142c0.553-0.273,1.927-1.598,2.328-1.233
		c0.579,0.528-0.141,1.01-0.362,1.474c-0.688,1.446-2.801,2.366-2.425,4.037c0.488,2.17-0.751,3.48-1.483,5.116
		c-0.638,1.423-2.248,2.743-1.291,4.445c0.873,1.551,2.556,0.418,3.863,0.559c3.095,0.335,0.153,1.949-1.458,4.631
		c-0.942,1.567-0.671,2.67,1.448,2.653c0.091,0.199,0.238,0.437,0.174,0.533c-3.256,4.88-3.85,11.215-8.418,15.376
		c-1.536,1.399-0.378,3.406,1.696,2.711c0.439-0.147,0.886-0.28,1.339-0.373c0.41-0.084,0.841-0.63,1.202-0.093
		c0.03,0.046-4.098,4.454-4.155,4.53c-1.414,1.853-1.013,2.933,1.27,3.121c1.236,0.102,1.28,0.384,1.09,1.405
		c-1.025,5.485-2.913,10.695-5.236,15.725c-1.942,4.204-6.886,10.367-5.047,11.942c0.751,0.643,1.527,0.323,2.203-0.216
		c1.087-0.867,2.115-1.812,3.238-2.627c0.607-0.44,1.364-1.269,2.109-0.631c0.65,0.557,0.341,1.574,0.021,2.296
		c-3.042,6.852-5.496,8.602-0.269,8.351c3.404-0.163-0.508,2.265-1.017,5.543c-0.483,3.114-1.663,6.004-2.745,8.936
		c-0.487,1.321-1.924,2.804-0.562,4.147c1.508,1.487,2.675-0.33,3.927-0.951c2.7-1.339,0.964,2.442-1.12,4.618
		c-6.545,6.836,1.476,6.081,6.736,2.787c0.243,0.414,0.244,0.841-0.05,1.216c-2.934,3.739-4.378,8.449-7.816,11.875
		c-2.906,2.895-4.264,8.663-9.315,11.902c-0.784,0.503-1.06,1.227-0.692,2.094c0.809,1.905,4.447,0.213,6.273-0.765
		c9.079-4.861,12.299-6.906,14.594-2.806c0.204,0.365,0.815,0.89,1.022,0.807c2.6-1.048,4.889,0.14,7.251,0.865
		c0.189,0.058,0.481-0.042,0.663-0.162c1.478-0.977,2.016-0.005,2.585,1.144c2.796,5.658-0.517,10.638,2.264,16.3
		c0.139,0.284,0.131,0.715,0.032,1.029c-0.628,2.003-0.03,3.888,0.43,5.811c0.866,3.617-1.205,6.636-4.971,7.181
		c-5.091,0.737-9.906,3.42-12.819,4.368c-1.495,0.486-6.459,2.772-10.629,5.327c-0.87,6.613-3.683,19.85-6.353,25.703
		c-1.416-2.191-16.684,23.728-19.126,29.262c-4.787,10.845,79.547,16.279,105.282,24.595c2.775,0.897,5.839,1.442,8.416-0.428
		c12.791-9.28,17.607-0.156,58.162-5.133c7.989-0.98,50.213-2.176,94.362-3.198c6.265-4.231,12.656-8.335,18.285-13.294
		c-0.705-0.052-1.437-0.103-2.134-0.155c1.783-0.561,3.511-1.285,5.157-2.253c1.9-1.118,3.801-2.245,5.619-3.488
		c5.449-3.727,10.858-7.515,16.283-11.278c1.606-1.114,2.515-2.462,1.342-4.396c-1.078-1.777-1.856-3.633-2.478-5.643
		c-0.902-2.914-0.925-4.361,1.217-6.41c1.929-1.844,4.072-3.352,6.57-4.481c4.06-1.835,18.084-5.85,23.744-7.658
		c5.217-1.665,10.617-1.785,15.995-1.944c2.454-0.072,4.725-1.151,7.223-0.891c3.737,0.388,6.912-1.653,10.276-2.76
		c1.707-0.562,3.153-1.918,4.71-2.925c1.03-0.666,2.035-1.644,1.676-2.819c-0.865-2.83-0.472-6.248-2.948-8.361
		c-18.032-15.387-14.466-9.634-18.463-12.575c-2.039-1.5-4.245-2.319-6.819-2.005c-1.489,0.182-2.649-0.663-3.871-1.341
		c-7.791-4.319-5.573-2.457-16.686-5.529c-5.681-1.571-11.271-3.573-17.006-4.933c12.769,0.232,20.168-2.076,45.942-2.611
		c1.099-0.023,2.187-0.119,3.271-0.247c0.136,0.536,0.535,0.962,1.29,1.222c2.521,0.868,5.034,2.214,7.611,2.369
		c5.424,0.328,10.72,2.092,16.225,1.411c0.909-0.112,1.879-0.069,2.778,0.114c7.798,1.587,15.302,4.511,23.31,5.133
		c3.392,0.263,6.459,2.059,9.773,2.272c4.732,0.304,9.41,1.479,14.196,0.965c1.184-0.127,2.334,0.165,3.404,0.604
		c7.258,2.982,12.245,0.729,22.593,7.172c5.596,3.485-3.724,9.312-11.588,10.54c-14.015,2.189-17.119,2.53-20.624,5.374
		c-1.941,1.574-3.421,3.65-2.944,6.319c0.45,2.517,2.859,2.857,4.803,3.405c4.785,1.349,9.68,2.187,14.587,3.01
		c9.13,1.531,17.806,4.857,26.702,7.3c8.363,2.296,16.639,4.995,24.999,7.372c6.372,1.811,12.861,2.915,19.445,3.363
		c3.707,0.252,7.299,1.144,10.97,1.583c2.056,0.246,4.17,0.069,6.193,0.652c3.414,0.984,6.708,2.303,9.995,3.639v1.665
		c7.655,4.803,12.668,4.425,21.019,13.157c1.719,1.797,3.267,3.817,5.136,5.459c1.177,1.035,2.448,1.964,3.747,2.857
		c10.863-3.298-14.555-0.405,134.174-0.405c0-0.001-2.441-67.384-3.981-109.885c0.032,0.021,0.063,0.039,0.096,0.06
		c0.667,0.443,1.347,1.055,2.202,1.083c1.599,0.052,3.9-2.038,4.548-3.311c0.449-0.881,0.227-1.17-0.351-1.814
		c-0.232-0.258-0.631-0.089-0.854-0.267c-0.47-0.375-0.694-1.086-0.668-1.658c0.016-0.342,0.094-0.577,0.155-0.814
		c2.364,0.725,5.441,0.411,6.654-1.98C719.507,245.858,719.545,245.615,719.42,245.446z M619.409,191.232
		c0.231,1.15,0.422,2.213-0.562,2.854c-2.024,1.318-1.099,3.907-1.229,7.523c-0.021,0.574-0.572,0.86-0.837,0.253
		c-0.778-1.788-2.849-2.832-2.89-5.012c-0.052-2.845-0.612-5.488-2.056-7.833C614.326,189.861,616.841,190.625,619.409,191.232z
		 M588.126,181.599c0.182-0.526,0.539-0.697,0.976-0.706c4.173,1.1,9.108,3.015,13.652,4.772c-0.145,2.463-0.291,4.926,0.16,7.392
		c0.261,1.429-1.955,2.998-1.583,4.848c0.726,3.613-4.582,2.054-4.018,5.973c0.056,0.388,0.149,1.025-0.559,1.006
		c-0.299-0.008-0.679-0.207-0.872-0.442c-1.841-2.24-3.661-4.496-5.458-6.771c-0.493-0.625-0.583-1.371,0.302-1.694
		c2.943-1.076,1.851-2.613,0.528-4.176c-0.764-0.903-0.549-1.178,0.565-1.561c2.643-0.907,2.791-1.813,0.806-3.761
		c-0.662-0.649-1.46-1.162-2.097-1.832C589.607,183.679,587.686,182.87,588.126,181.599z M545.399,146.424
		c10.995,7.899-23.85-10.877-24.732-16.439C513.884,120.602,536.294,141.37,545.399,146.424z M528.325,204.199
		c-4.484-0.218-13.785-6.36-21.684-12.676c-10.212-8.165-18.85-13.84-10.164-12.938c6.951,0.722,11.129,8.741,17.612,13.965
		C522.804,199.572,531.278,205.374,528.325,204.199z M512.401,133.96c-11.141-7.616-20.123-17.411-32.029-25.388
		C490.657,108.999,511.832,126.229,512.401,133.96z M514.068,164.984c-2.632-1.164-3.481-4.449-6.01-5.727
		c-17.973-9.08-20.447-26.007-41.716-42.713c-1.308-1.028-2.627-2.307-0.316-4.713C480.289,122.113,516.935,162.081,514.068,164.984
		z M471.519,165.496c-1.421,3.373-3.399,6.255-4.495,9.818c-3.039-5.733-5.881-11.388-5.948-18.677
		C465.742,158.925,468.505,162.259,471.519,165.496z M443.431,111.831c-0.061-8.795,15.645,21.515,25.431,31.981
		C458.942,141.067,442.23,119.489,443.431,111.831z M464.41,93.07c0.517,2.908,14.982,7.117,14.043,11.421
		c-16.613-5.177-29.938-14.657-41.798-26.665C450.509,82.258,452.173,85.236,464.41,93.07z M386.827,44.012
		c20.583,11.789,37.093,27.526,51.556,45.876c-2.219,0.767-3.071-0.916-4.364-1.536c-5.775-2.77-9.986-7.111-13.648-12.342
		c-7.962-11.372-19.199-19.211-30.396-27.033C388.378,47.862,386.568,46.869,386.827,44.012z M66.266,262.915
		c0.1-0.175,0.247-0.275,0.507-0.304c1.877-1.297,4.675,0.074,6.581,1.327c2.997-0.828,5.198,5.795,11.852,1.825
		c-0.306,1.301-0.556,3.037-0.641,5.457c-0.06,1.703,0.555,3.805-0.23,5.41c-0.124,0.253-0.291,0.463-0.474,0.659
		c0.694,1.674,0.183,3.098-2.061,3.714c-0.004,0.001-8.297,2.31-8.298,2.31c-1.138,0.371-2.271,0.855-3.485,0.784
		c-1.395,1.647-1.416-7.025-1.536-9.108c-0.231-3.997-1.515-8.01-2.357-11.918C66.101,262.964,66.182,262.917,66.266,262.915z
		 M315.883,284.792c0.984,0.589,2.046,1.055,2.999,1.688c0.758,0.504,1.566,0.789,2.238,0.193c2.472-2.193,2.707,1.554,5.6,0.785
		c3.148-0.836,1.417,1.97,4.373,1.729c2.075-0.17,3.641,1.215,5.232,2.053c3.039,1.602,2.867,1.832-0.095,4.041
		c-5.9,4.399-0.535,2.345-10.617,8.824c-2.38,1.529-4.692,3.079-7.742,1.81c-0.473-0.197-1.174-0.047-1.707,0.13
		c-5.335,1.774-11.188,2.413-15.288,6.929c-0.374,0.412-0.938,0.788-1.472,0.894c-3.382,0.677-5.734,2.93-8.121,5.148
		c-0.679,0.631-1.357,1.248-2.269,1.576c-3.564,1.28-6.416,3.699-9.383,5.928c-0.938,0.705-1.69,1.542-2.267,2.593
		c-2.759,5.03-6.173,9.431-11.474,12.095c-4.353,2.187-8.377,4.985-12.842,6.976c-0.511,0.228-1.081,0.576-1.358,1.03
		c-1.441,2.359-3.746,3.775-5.816,5.44c-1.294,1.041-2.515,2.184-3.041,3.734c-0.146,0.431-0.355,0.777-0.559,1.13
		c-6.503-0.274-12.053-0.216-16.65,0.43c-7.917,1.112-15.65-2.182-23.575-2.168c-0.667,0.001-1.45-0.373-1.983-0.852
		c-7.772-6.987-16.389-5.78-19.959-6.954c-6.491-2.135-6.748-2.043-9.32,3.868c-0.72,1.654-0.886,4.659-2.631,4.332
		c-2.228-0.418-1.712-3.499-1.721-5.501c-0.046-9.811-2.815-19.334-2.325-29.192c0.385-7.726-7.122-6.587-6.4-2.48
		c1.544,8.803-2.632,16.404-3.911,24.606c-0.203,1.301,0.012,3.305-1.15,3.61c-1.351,0.356-1.316-1.779-1.929-2.789
		c-0.267-0.439-0.399-0.985-0.575-1.491c-0.462-1.327-1.173-2.512-2.524-2.417c-1.396,0.098-1.6,1.706-2.277,2.785
		c-0.98,1.562,0.57,5.996-3.389,4.318c-2.66-1.128-6.417,0.564-7.05-5.461c-0.902-8.579-3.256-16.961-4.968-25.433
		c-0.273-1.351-0.508-2.918-1.834-3.189c-2.086-0.425-0.658-1.323-12.554,27.439c-0.502,1.214-1.066,3.724-2.881,1.423
		c-5.928-7.512-3.752,9.052-8.724,2.677c-0.502-0.644-2.494-0.933-2.554-0.767c-2.318,6.463-8.192-1.247-10.825,3.502
		c-3.169,5.715-4.146,0.531-6.029-2.372c-6.438-9.926-6.446,7.534-10.486,0.262c-1.107-1.992-2.855-2.299-4.253-0.682
		c-1.978,2.288-3.664,1.796-5.636,0.181c-0.486-0.398-1.602-0.589-1.99-0.243c-2.488,2.219-5.344,3.891-8.166,5.612
		c-0.643-0.4-1.161-6.299-1.104-7.035c0.133-1.709,0.985-1.941,0.494-3.846c-0.717-2.785-4.199-3.136-2.69-6.767
		c0.574-1.38,2.131-1.752,2.436-3.512c0.715-4.123-3.857-5.069-5.108-8.032c-1.48-3.506,0.045-1.84,0.021-4.526
		c-0.015-1.747-1.405-2.541-2.221-3.778c-1.734-2.629-1.753-5.079-1.624-7.935c3.451,0.393,6.899,1.081,10.378,0.829
		c3.276-0.237,6.699,0.362,10.044-0.105c10.445-1.46,18.936,1.678,16.739-3.015c-0.317-0.678-1.655-0.984-1.063-1.9
		c1.245-1.928,13.598-2.308,15.876-2.598c3.687-0.469,7.39-1.793,10.927-1.688c6.894,0.204,13.389-3.177,20.316-1.741
		c1.707,0.354,2.688-0.561,2.602-1.623c10.89-0.108,18.725,0.543,19.067,0.612c1.438,0.11,3.171,0.429,4.619,0.027
		c4.281-1.165,4.293,0.885,6.771,0.592c3.628-0.39,4.177,0.795,7.617,0.805c0.939,0.001,3.933,1.57,4.781,2.052
		c1.452,0.808,3.757-0.202,5.322,0.235c6.051,1.682,7.815-0.503,14.741,2.74c0.488,0.206,5.562,2.108,6.085,1.827
		c1.168-0.68,7.37,1.583,8.439,2.104c2.439,1.106,3.302,2.872,6.061,2.974c1.621,0.036,7.406,2.616,8.444,3.823
		c0.445,0.496,2.327,0.831,3.906,1.074c-1.476-2.931-1.355-5.686-3.119-8.462c-1.063-1.672-2.506-3.072-3.598-4.741
		c-0.289,0.616-0.576,1.232-0.862,1.849c-1.251-0.528-1.552-0.446-2.315-1.201c-0.813-0.803-4.504-1.689-5.633-1.712
		c-0.253-0.005-0.443-0.133-0.61-0.317c-1.699-1.858-4.013-2.389-6.44-2.581c-1.853-0.147-3.14-0.027-7.331-1.731
		c-0.752-0.306-1.567-0.421-2.402-0.379c-0.347,0.017-0.853,0.482-0.993,0.004c-0.137-0.461,1.089-0.769,1.529-0.965
		c1.212-0.541,0.604-1.873-2.302-0.898c-0.923,0.308-0.95-0.067-0.422-0.695c0.673-0.801,1.373-1.584,2.048-2.388
		c0.623-0.74-0.071-1.483-0.824-1.093c-2.906,1.504-1.507,1.409-5.863,3.246c-0.505,0.213-0.687,0.13-0.851-0.327
		c-0.521-1.457-1.159-2.882-0.853-4.531c0.188-1.013-0.974-1.155-1.383-0.303c-0.955,1.986,0.416,5.481-1.103,3.832
		c-0.624-0.68-0.976-1.547-1.464-2.323c-0.189-0.301-0.409-0.589-0.804-0.507c-0.475,0.099-0.524,0.513-0.606,0.917
		c-0.094,0.464,0.258,0.919-0.036,1.374c-0.178-0.148-0.346-0.309-0.538-0.435c-1.865-1.23-3.636-2.52-4.477-4.768
		c-0.288-0.773-1.073-0.941-1.718-0.546c-0.714,0.437-0.887,1.014-0.54,1.773c0.542,1.189,1.028,2.401,1.781,3.473
		c0.314,0.447,0.241,0.864-0.478,0.684c-1.351-0.34-2.772-0.392-4.053-1.05c-0.676-0.347-1.475-0.417-2.284-0.303
		c-4.214,0.596-6.909-0.967-10.164-0.735c-1.297,0.093-2.526-0.003-3.729-0.478c-0.684-0.27-1.466-0.462-2.162-0.16
		c-2.274,0.987-8.902,0.157-19.225-0.149c-3.998-0.12-6.063,0.168-10.729,1.596c-12.289-5.03-17.37-2.951-26.235-1.871
		c-1.905,0.232-1.582-1.404,2.257-1.645c5.743-0.36,11.337-2.35,17.228-1.281c3.602,0.654,7.103-0.961,10.682-1.124
		c8.558-0.392,17.184-0.059,25.507-2.675c0.016-0.005,21.711-0.903,24.334-0.804c2.996,0.112,6.032,0.345,8.863-1.177
		c0.651-0.35,1.618-0.314,2.398-0.192c10.782,1.676,14.248-4.365,37.73-4.45c0.788-0.003,1.584,0.053,2.38,0.11
		c-4.513,0.942-9.087,1.611-13.475,3.189c-8.28,2.979-20.846,1.318-20.379,5.001c0.269,2.127,2.652,1.642,4.09,1.405
		c5.54-0.915,11.07,1.159,16.588-0.098c0.426-0.097,0.952-0.001,1.373,0.16c1.909,0.728,3.893,0.497,5.86,0.565
		c4.533,0.157,9.047-0.462,13.556-0.401c2.255,0.031,4.334,0.012,6.418-0.875c1.04-0.443,2.153-0.963,3.353-0.389
		c5.534,2.649,11.299,1.805,17.1,1.305c3.919-0.338,7.93-0.492,11.819-0.041c3.253,0.378,6.561,0.982,9.687,0.341
		c4.492-0.92,8.75,0.07,13.083,0.559c1.936,0.219,3.95-0.306,5.819,0.701c3.166,1.707,6.624,1.869,10.138,1.847
		c1.368-0.009,2.353-0.288,2.537-1.706C314.229,284.12,314.862,284.18,315.883,284.792z M442.685,255.154
		c-0.863,0.319-2.051-0.188-2.763-1.043c-0.539-0.647-0.634-1.484-0.676-2.302c-0.052-1.005-0.369-1.982-1.429-2.123
		c-1.979-0.263-1.934-1.781-2.064-3.097c-0.164-1.652-0.597-3.228-1.09-4.786c2.937-0.405,5.403-1.897,7.865-3.616
		c-0.117,2.961-0.387,3.227-0.61,6.232c-0.383,0.738-0.73,1.515-0.968,2.404c0.305-0.161,0.599-0.325,0.902-0.487
		c-0.031,2.222,0.166,4.422,0.806,6.634C442.87,253.704,443.546,254.836,442.685,255.154z M443.694,225.895
		c-1.584,0.193-1.193,2.288-1.209,3.91c-0.016,1.683,0.041,3.377,0.067,5.066c-2.783,1.733-5.63,3.378-8.536,4.943
		c-0.866-2.6-1.146-6.009-3.739-5.269c-1.395,0.398-1.576,1.768-1.154,2.882c1.461,3.852,0.568,7.81,0.74,11.716
		c0.03,0.694,0.22,1.56-0.42,1.947c-1.809,1.092-1.392,3.071-2.029,4.62c-0.318,0.773,0.1,2.053-1.325,2.062
		c-1.437,0.009-2.47-0.67-2.81-2.112c-0.211-0.898-0.182-1.853-0.401-2.749c-1.377-5.622-4.585-10.627-5.565-16.396
		c-0.107-0.627-0.69-1.192-1.107-1.743c-0.541-0.713-1.281-0.991-2.152-0.701c-0.827,0.275-0.939,1.035-0.852,1.71
		c0.773,6.012-1.407,11.986-0.134,18.028c0.499,2.369-0.067,2.535-2.411,1.948c-1.314-0.329-2.037-0.837-2.371-2.116
		c-0.567-2.173-3.141-1.743-3.419,0.553c-0.125,1.033-0.097,2.084-0.18,3.124c-0.062,0.772,0.332,1.983-0.514,2.174
		c-1.037,0.234-1.779-0.83-2.309-1.685c-0.287-0.463-0.282-1.108-0.402-1.673c-1.123-5.24-4.488-2.36-4.911-11.807
		c-0.225-5.028-1.455-9.577-4.808-13.467c-0.673-0.781-0.981-2.027-2.301-1.615c-1.321,0.412-0.936,1.574-0.942,2.629
		c-0.032,4.928,0.295,9.936-2.781,14.296c-0.484,0.686-0.123,1.564-0.041,2.374c0.458,4.471-0.384,8.981,0.372,13.454
		c0.296,1.751-1.191,1.709-1.736,0.664c-0.997-1.911-2.408-3.936-2.807-5.762c-0.927-4.248-3.058-8.318-2.574-12.853
		c0.048-0.449-0.061-0.927-0.157-1.378c-0.251-1.173-0.589-2.338-2.086-2.376c-1.56-0.04-1.642,1.231-2.08,2.324
		c-2.005,5-0.379,10.276-1.177,15.398c-0.184,1.179-0.825,2.342-0.985,3.514c-5.186,0.146-7.861,1.006-6.968-1.52
		c0.079-0.223-0.258-0.621-0.451-0.904c-0.483-0.71-1.35-1.261-0.15-2.224c0.557-0.446-0.324-0.917-0.687-1.288
		c-0.684-0.697-1.287-1.288,0.331-1.542c2.024-0.318-1.667-2.252-2.996-4.419c-0.431-0.703-1.093-0.233-1.291,0.317
		c-0.374,1.041-1.279,1.692-1.759,2.575c-0.527,0.969-0.569,2.214-0.749,3.35c-0.041,0.261,0.086,0.564-0.187,0.738
		c-0.409,0.26-0.63-0.111-0.871-0.331c-0.321-0.294-1.267-1.295-1.029-1.688c0.198-0.326,0.641,0.043,0.98,0.05
		c1.03,0.023,1.012-0.769,0.437-1.165c-0.504-0.347-3.451-3.051-3.091-3.543c0.208-0.284,0.508-0.02,0.762,0.047
		c0.594,0.159,0.931,0.517,1.277-0.145c0.151-0.288,0.018-0.565-0.192-0.761c-1.389-1.298-2.777-2.597-4.194-3.865
		c-0.446-0.399-0.792-0.066-0.992,0.341c-0.846,1.716-2.041,3.209-3.047,4.822c-0.338,0.541-0.739,1.047-0.118,1.685
		c0.647,0.664-0.772,1.309-0.28,1.627c1.853,1.195-0.02,1.815-0.32,2.64c-0.213,0.586-0.803,1.164,0.277,1.439
		c0.34,0.087,0.809,0.047,0.617,0.545c-0.141,0.365-0.479,0.709-0.816,0.931c-0.451,0.296-0.808-0.111-1.08-0.396
		c-0.305-0.319-1.017-0.752-0.522-1.165c1.24-1.035,0.154-1.269-1.339-3.079c-0.169-0.205-0.516-0.562-0.309-0.702
		c1.951-1.321,0.047-1.877-0.532-2.627c-0.519-0.671-1.561-1.267,0.333-1.356c1.582-0.075-0.426-1.957-1.522-3.108
		c-0.412-0.433-0.84-0.417-1.286-0.003c-1.133,1.054-2.282,2.09-3.421,3.138c-1.757,1.617,1.796,0.838-0.088,3.001
		c-0.301,0.346-0.049,0.822,0.428,0.999c1.141,0.423,0.711,0.877,0.107,1.469c-1.083,1.063-1.063,1.106,0.246,1.81
		c0.278,0.15,0.529,0.284,0.369,0.588c-0.596,1.129-1.585,0.107-2.802-0.202c-1.105-0.281-0.602-0.99-0.488-1.646
		c0.289-1.657-3.187-0.836-1.405-2.507c0.571-0.535,0.612-1.26-0.096-1.585c-2.533-1.164-1.971-4.021-2.663-5.392
		c-0.233-0.463-0.797-0.604-0.953-0.09c-0.522,1.713-2.023,2.67-2.948,4.06c-0.196,0.295-0.563,0.783-0.323,0.901
		c2.341,1.148-1.22,2.312,1.209,3.166c2.048,0.72-1.501,1.17-0.247,2.681c0.246,0.296,1.252,0.411,0.561,0.967
		c-0.778,0.626-1.605,1.46-2.807,1.204c-0.79-0.169-1.038-0.61-0.653-1.375c0.137-0.273-0.02-0.582-0.241-0.753
		c-0.871-0.672-2.206-1.085-1.37-2.64c0.019-0.035-0.04-0.15-0.091-0.179c-2.978-1.726-2.269-7.535-4.138-5.61
		c-0.853,0.878-2.215,1.535-0.704,2.95c0.082,0.077,0.127,0.354,0.084,0.383c-1.358,0.914-0.434,2.903-1.809,3.809
		c-0.438,0.289-0.666,0.715-0.556,1.272c0.056,0.281,0.082,0.657-0.179,0.768c-1.34,0.571-2.023,1.444-1.597,2.961
		c0.028,0.1-0.229,0.335-0.398,0.422c-0.22,0.113-0.372-0.08-0.502-0.244c-0.043-0.055-0.071-0.129-0.124-0.169
		c-0.96-0.73,0.087-1.911-0.563-2.647c-0.607-0.689-1.853-0.935-1.347-2.293c0.132-0.355-0.112-0.701-0.407-0.908
		c-2.521-1.769,0.111-2.486-2.189-3.433c-0.639-0.263-0.997-0.133-1.235,0.615c-0.54,1.695-1.218,3.346-1.805,5.027
		c-0.198,0.567-0.514,0.928-1.105,1.003c0.59-1.511-0.701-2.613-0.914-3.954c-0.036-0.228-0.393-0.391-0.561-0.615
		c-0.308-0.412-0.147-1.284-0.938-1.196c-0.791,0.088-0.327,1.081-0.668,1.34c-1.882,1.435-1.56,6.155-2.887,3.959
		c-0.218-0.362-0.408-0.741-0.638-1.094c-0.001-0.002-0.003-0.003-0.004-0.004c0-0.718,0.045-1.446,0.191-2.199
		c0.14-0.723-0.115-1.511-0.646-1.912c-3.188-2.407-3.882-5.81-3.998-9.487c-0.04-1.27-0.405-2.427-1.993-2.189
		c-1.327,0.199-1.442,1.324-1.363,2.429c0.025,0.345,0.119,0.685,0.186,1.027c0.941,4.811-0.382,9.45-1.094,14.133
		c-0.067,0.441-0.342,0.856-0.546,1.27c-0.1,0.204-0.259,0.379-0.391,0.567c-0.188-0.233-0.431-0.44-0.551-0.704
		c-0.191-0.418-0.39-0.865-0.431-1.314c-0.391-4.275-1.284-8.369-3.875-11.944c-0.381-0.525-0.489-1.31-0.554-1.99
		c-0.272-2.852-1.516-5.317-2.925-7.736c-0.518-0.889-0.808-2.143-2.17-1.801c-1.329,0.334-1.133,1.589-1.118,2.61
		c0.06,4.068-0.069,8.139-0.806,12.135c-0.589,3.194-1.538,6.301-0.746,9.609c0.072,0.301,0.075,0.616,0.038,0.922
		c-0.008-0.001-0.015-0.002-0.023-0.003c-0.791,0.228-1.56,0.513-2.33,0.796c-0.153-0.423-0.224-0.938-0.354-1.335
		c-1.293-3.961-2.563-7.929-4.476-11.653c-0.472-0.919-0.849-2.166-2.139-1.895c-1.451,0.304-1.582,1.73-1.336,2.834
		c0.895,4.012-1.434,7.71-0.999,11.684c0.112,1.02-0.22,2.68-1.597,2.67c-1.217-0.009-1.183-1.465-1.212-2.511
		c-0.007-0.231-0.021-0.466-0.069-0.691c-0.158-0.753-0.602-1.277-1.382-1.335c-0.781-0.057-1.343,0.443-1.615,1.1
		c-0.259,0.625-0.383,1.329-0.438,2.009c-0.104,1.298-0.742,1.56-1.879,1.158c-0.543-0.192-1.118-0.393-1.682-0.403
		c-1.705-0.031-2.368-0.509-2.233-2.509c0.145-2.139-0.422-4.365-1.348-6.388c-0.478-1.044-1.039-2.325-2.5-1.815
		c-1.281,0.447-0.93,1.715-0.772,2.726c0.175,1.114,0.926,2.218,0.061,3.326c-1.372,1.758-1.457,3.836-1.671,5.928
		c-0.154,1.512-0.204,3.215-1.333,4.294c-3.522-0.913-7.193-1.064-10.767-1.642c-2.134-0.345-4.443-1.28-6.476-0.743
		c-3.44,0.909-5.982-0.392-8.545-2.201c-2.906-2.052-4.782,3.228-9.676-2.76c-0.749-0.916-1.499-1.565-2.578-0.581
		c-0.949,0.867-1.433,0.614-1.481-0.555c-0.201-4.879-1.854-9.54-2.049-14.44c-0.1-2.512-0.902-5.006-1.485-7.485
		c-0.551-2.34-3.374-1.554-2.982-0.103c0.605,2.245-1.187,4.03-1.069,6.065c0.321,5.536-1.322,10.769-2.199,16.12
		c-0.183,1.115-0.328,1.205-1.011,0.31c-1.54-2.017-2.409-1.931-3.426,0.353c-0.312,0.701-0.607,3.061-1.25,3.101
		c-1.714,0.106-1.699-3.801-3.323-4.06c-2.419-0.386-2.33-2.241-2.652-3.867c-0.201-1.017-0.13-2.088-0.613-3.05
		c-0.739-1.47-1.578-3.253-3.423-2.931c-1.923,0.336-1.406,2.333-1.501,3.773c-0.173,2.648,0.45,5.363-0.552,7.932
		c-0.303,0.776-0.114,2.2-1.356,2.093c-4.362-0.377-2.322-7.242-5.228-7.239c-0.779,0.001-1.292,0.515-1.525,1.215
		c-0.486,1.459-1.381,2.64-2.352,3.799c-0.473,0.565-0.314,1.87-1.397,1.65c-2.136-0.434-4.669-11.33-5.037-13.495
		c-0.277-1.625-0.716-3.99-2.284-3.775c-0.963,0.132-1.286,0.883-1.348,1.76c-0.364,5.112-2.995,9.691-3.464,14.806
		c-0.111,1.203-1.451,3.049-2.531,2.803c-1.401-0.32-2.593-1.826-3.721-2.973c-0.894-0.908,0.171-1.649,0.497-2.46
		c1.168-2.902-3.063-4.191,0.661-5.845c0.535-0.238,0.139-1.278-0.233-1.901c-0.612-1.026-1.513-1.706-2.504-2.356
		c-2.319-1.52-2.847-3.818-0.983-5.75c3.851-3.991-5.339-5.162,0.34-9.967c1.591-1.346,1.375-2.451,0.308-3.832
		c-1.206-1.561-2.381-3.147-3.584-4.711c-2.149-2.794,3.323-2.099,0.461-5.428c-7.471-8.689-4.781-10.806-6.35-13.709
		c-1.162-2.151-3.692-0.874-3.106,0.729c1.595,4.369-3.915,7.014,0.081,12.536c1.776,2.454,1.817,5.237,0.368,7.864
		c-4.414,8.001,0.978,15.033-3.527,19.019c-0.942,0.833-0.924,2.243-0.194,3.233c1.836,2.486-1.607,5.069,0.245,7.54
		c0.295,0.394-2.791,1.536-3.26,1.726c-1.643,0.668-4.153-0.041-4.413,2.837c-0.112,1.241-5.174-1.799-4.935-3.29
		c0.331-2.072,1.702-1.059,3.702-1.411c2.108-0.37,2.478-1.303,1.19-3.111c-2.07-2.904-3.452-1.604-5.913-7.938
		c-0.992-2.553-1.077-2.553,1.649-3.027c7.291-1.269-7.999-8.208-2.293-9.773c1.734-0.476,3.825,0.835,4.497-0.688
		c0.624-1.414-0.721-2.018-1.56-2.756c-2.596-2.282-4.302-5.095-5.403-8.369c-0.543-1.614-0.645-2.217,1.446-2.146
		c7.175,0.243-6.74-10.466-1.286-9.783c0.938,0.117,1.975,0.326,2.342-0.854c0.316-1.014-0.429-1.727-1.066-2.409
		c-4.089-4.376,0.471-2.511-3.313-7.926c-2.056-2.943-3.853-6.052-4.272-9.739c-0.144-1.263-0.156-2.881-1.836-2.881
		c-1.84,0-1.558,1.628-1.553,2.894c0.017,4.157,0.624,6.88-1.654,10.348c-1.007,1.533-1.889,3.81-0.744,5.583
		c3.855,5.968-9.48,11.165-5.076,13.628c2.645,1.48,1.345,2.463,0.145,3.863c-1.359,1.585-2.535,3.315-4.413,4.389
		c-1.015,0.581-1.76,1.877-0.921,2.58c1.686,1.413,2.48,2.969,2.449,5.106c-0.005,0.358,0.451,0.895,0.822,1.059
		c5.618,2.472-6.658,4.075-0.587,7.84c0.883,0.547,1.734,1.151,2.568,1.771c0.566,0.42,0.608,0.795-0.044,1.309
		c-2.621,2.068-2.666,2.25-1.204,5.225c0.31,0.63,0.939,1.22,0.244,1.806c-1.399,1.178-2.309,3.237-4.235,3.402
		c-1.491,0.128-1.864-1.851-2.853-2.775c-3.312-3.099,3.24-1.848-0.163-5.826c-0.914-1.069-3.117-2.128,0.224-2.934
		c0.959-0.232,1.008-1.288,0.645-2.05c-1.782-3.74-5.729-3.885-3.507-7.112c0.246-0.357-0.385-1.271-0.523-1.945
		c-0.955-4.653-7.657-11.124-3.143-12.219c0.675-0.164,1.063-0.97,1.052-1.684c-0.064-4.236,2.765,0.532,4.395-1.191
		c1.1-1.164-0.233-3.347-1.06-4.781c-2.547-4.421-4.146-9.333-7.061-13.563c-2.136-3.1,3.711-2.23,6.999-1.175
		c5.035,1.617,1.874-4.876-2.271-8.918c-1.447-1.411-2.727-2.949-3.909-4.561c13.948-2.498,29.751-10.296,42.673-13.16
		c9.02-1.999,25.987-3.772,34.81-5.643c9.41-1.996,26.38-22.364,32.987-27.851c12.964-10.768,13.672-13.28,25.515-25.302
		c2.954-2.999,1.435-7.194,5.832-7.645c3.179-0.326,3.668-2.298,6.922-3.691c0.357,2.156-3.098,2.976-0.604,5.575
		c10.917-11.622,31.042-23.966,40.573-40.783c6.282-11.085,28.185-15.412,30.062-18.919c1.561-2.917-10.776,0.775-8.625-0.531
		c2.626-1.594,13.438-9.537,17.126-18.128c2.238,0.839,3.643,2.623,6.28,2.933c-2.487,11.64,2.615,15.418-14.11,39.29
		c-2.29,4.419-8.438,24.007-20.592,37.253c-4.317,4.706-7.647,9.754-9.101,15.985c-0.326,1.395-1.786,2.591-0.555,4.588
		c19.952-24.385,33.432-55.702,34.885-60.615c0.254-0.858,1.015-1.475,1.602-2.124c0,0,2.961-5.796,12.839-19.915
		c1.264-1.411,2.23-0.041,3.524-0.274c1.285-1.901,3.348-3.136,5.819-4.102c1.205,0.175,2.554,0.372,3.444,0.502
		c6.345-6.13,9.203-14.039,13.369-21.156c3.226-5.511,8.991-8.703,12.814-13.703c0.645-0.843,2.009-0.435,3.353,0.001
		c3.527,5.692,5.923,11.971,6.228,19.372c-7.449,8.576-13.124,18.846-19.203,28.91c9.295-7.439,12.768-19.664,22.811-26.852
		c0.154-1.025,0.353-2.348,0.547-3.634c3.042-0.304,7.146,11.485,5.822,16.471c-3.239,2.553-8.401,1.964-10.902,5.313
		c-2.641,3.537-4.286,7.838-7.147,11.589c6.531-4.026,9.443-15.002,20.549-9.34c0.513,1.24,1.19,2.877,1.738,4.203
		c-10.91,8.262-23.397,13.938-31.592,24.999c14.13-4.387,22.941-17.61,37.991-21.354c5.933,4.56-3.269,12.217,0.607,24.898
		c0.321,1.05-0.354,2.067-1.264,3.011c-1.861,0.483-47.989,8.758-48.992,8.936c-6.112,1.083-9.734,6.122-14.645,9.109
		c-3.146,1.914-6.699,3.452-9.024,6.607c12.322-2.985,16.412-13.157,25.637-13.327c10.856-0.2,20.965-4.312,31.622-5.646
		c5.755-0.721,11.244,0.691,16.944,0.247c6.921-0.539,13.147-3.759,20.183-3.971c6.943-0.209,7.878,0.277,24.432,18.492
		c1.047,1.153,1.54,2.64,0.998,4.624c-9.14,5.328-12.925,15.735-20.439,22.998c10.766-0.828,6.423-11.583,23.974-18.989
		c0.818,14.864,12.921,21.648,5.502,29.375c-2.164,2.254-4.194,4.634-6.283,6.959c0.257,0.367,0.513,0.735,0.77,1.102
		c4.871-2.462,9.741-4.924,14.968-7.567c4.542,4.668,2.078,10.468,3.537,15.82c-8.805,3.573-17.128,5.628-25.816,1.092
		c-0.664-0.346-1.483-0.833-2.127-0.711c-7.724,1.466-12.275-3.855-16.987-8.245c-4.203-3.916-8.254-7.593-14.095-8.966
		c-2.613-0.615-5.339-1.912-7.361-3.655c-5.965-5.139-12.964-7.403-20.534-8.478c-1.06-0.151-2.196-0.233-3.138-0.681
		c-15.552-7.387-28.436,0.296-41.391,7.334c-2.934,1.594-5.607,3.669-8.461,5.563c-0.24,1.647-0.48,3.295-0.653,4.482
		c-11.124,10.861-25.526,13.764-39.196,18.087c-4.313,1.364-8.292,3.043-12.083,5.395c-10.668,6.618-22.715,6.855-34.672,7.163
		c-18.413,0.474-21.358,1.421-22.74,4.324c13.674,0.054,26.812-1.601,39.985-2.882c6.888-0.67,13.18-2.878,18.973-6.467
		c3.972-2.46,8.148-4.182,12.683-5.218c8.929-2.04,17.133-6.739,26.515-7.174c1.591-0.074,2.904-1.08,3.691-2.484
		c2.243-4.001,5.576-6.401,9.808-6.757c1.461-1.683-0.704-2.969,0.419-4.2c5.931-6.67,12.712-12.281,22.006-13.259
		c14.281-1.502,26.329,4.015,38.166,12.443c-7.99,4.297-12.196,11.691-20.19,15.248c-7.597,3.38-10.714,11.689-12.856,19.834
		c10.549-12.052,22.228-22.583,36.437-30.785c4.979,6.525,10.959,11.65,18.396,15.469c-3.416,7.901-9.878,12.321-15.883,17.37
		c8.942-0.333,13.619-8.421,21.268-11.656c4.327,5.192,2.162,12.448,5.536,17.75c-0.786,4.085-5.346,6.765-2.955,11.406
		c-8.749,5.071-12.225,15.415-22.464,19.331c2.712,2.24,4.245,1.334,5.582,0.11c6.146-5.629,13.722-7.725,21.666-9.201
		c11.218-2.085,19.819-8.473,28.443-15.792c6.853-5.815,10.048-15.221,18.822-17.807c-1.078,9.273-9.591,15.899-12.561,24.995
		c1.225,1.223,2.117,0.794,2.841,0.256c7.055-5.245,14.156-10.449,18.277-18.584c0.411-0.811,0.907-1.652,1.571-2.25
		c7.624-6.866,8.872-15.531,7.13-25.367c6.45,3.496,10.499,8.921,14.362,15.337c-3.756-1.07-5.999-4.436-10.846-4.803
		c6.058,8.607,5.121,16.45,0.292,23.329c-7.397,3.294-13.058,7.201-17.485,13.396c3.513,1.545,6.681,0.077,10.138,0.332
		c-0.25,5.046-3.811,7.817-6.85,10.825c-6.056,5.995-12.62,11.306-19.619,16.024C445.003,227.049,445.428,225.684,443.694,225.895z
		 M474.632,250.677c-0.92-2.421-1.839-4.842-2.827-7.236c-0.371-0.899-1.14-1.537-2.233-1.094c-0.944,0.383-1.004,1.206-0.735,2.052
		c0.925,2.908,0.579,5.708,0.004,8.489c-1.077,0.457-2.183,0.937-3.34,1.452c-1.505-4.02-3.2-7.975-3.946-12.245
		c-0.139-0.792-0.654-1.231-1.447-1.204c-0.984,0.033-1.444,0.672-1.48,1.593c-0.027,0.693,0.133,1.397,0.071,2.084
		c-0.295,3.284,0.676,6.8-1.733,9.707c-0.427,0.515-0.347,1.615-1.104,1.599c-1.053-0.022-0.49-1.063-0.597-1.642
		c-0.145-0.782-0.864-1.06-1.198-1.608c-1.554-2.551-3.747-4.966-3.63-8.121c0.035-0.955-0.04-1.875-0.164-2.78
		c9.314-5.193,18.277-10.284,28.347-14.13c0.729,0.025-0.121,2.342,2.201,2.318c2.725-6.224,10.767-8.606,12.955-16.315
		c3.769,2.708,4.918,7.485,8.745,10.024c2.975-1.515,3.828-5.317,7.018-6.282c1.964,0.731,1.465,3.08,3.131,4.164
		c2.956-0.827,4.568-3.733,7.301-5.352c2.929-0.233,5.813-0.255,8.605,1.714c2.311,1.63,4.189,4.689,7.922,3.634
		c0.657-3.357-2.724-5.488-2.364-8.979c5.729,2.184,11.288,4.303,16.847,6.422c0.394-0.499,0.788-0.998,1.182-1.496
		c-6.895-7.149-14.505-13.704-20.053-22.125c8.822-1.222,15.138,5.806,23.48,6.78c3.747-3.263,7.273,1.076,11.581,0.908
		c-3.305-7.543-10.984-12.249-12.65-20.455c2.027-0.835,3.398,1.15,5.516-0.536c-6.639-6.615-11.652-14.448-18.707-22.52
		c5.413,2.315,9.271,4.941,13.746,5.062c1.591-0.189,0.894-1.95,2.16-2.479c15.104,8.85,16.175,9.085,20.232,12.065
		c-0.563,2.601-2.521,2.805-3.488,4.908c-1.642,3.57,3.046,1.231,1.079,4.75c-0.509,0.911-1.115,1.771-1.591,2.698
		c-0.654,1.271-2.405,2.357-1.442,3.967c0.991,1.657,2.49,0.246,3.772,0.081c3.171-0.41-3.021,5.195-0.214,6.552
		c2.072,1.002,0.887,1.954,0.196,2.912c-1.583,2.197-2.585,4.668-3.381,7.211c-0.367,1.175-0.601,3.056,1.388,2.602
		c2.383-0.545,1.633,0.643,1.32,1.696c-0.851,2.857-2.685,4.592-4.515,4.419c-9.859-0.93-9.156,5.535-12.979,5.907
		c-9.921,0.965-13.181,6.659-19.092,7.806c-6.264,1.216-11.25,4.951-16.427,8.102C507.053,246.908,486.917,246.608,474.632,250.677z
		 M578.015,268.518c-0.012-4.182-0.33-8.379,0.039-12.55c0.06-0.684-0.113-1.438-0.975-1.614c-1.363-0.279-1.946,1.154-2.542,2.422
		c-1.658,3.527-2.939,7.331-7.038,8.976c-0.482,0.194-0.774,0.843-1.173,1.263c-0.544,0.573-1.117,1.121-1.688,1.671
		c-0.437-0.025-0.835-0.086-1.141-0.235c-3.85-1.881-7.432,1.803-11.149,1.275c-8.384-1.19-15.405,4.992-21.109,4.258
		c-0.799-0.103-1.657,0.027-2.353,0.495c-2.026,1.362-8.252,2.765-15.176,4.247c-5.098-0.703-5.186-3.772-9.086-3.782
		c-5.159-0.013-10.151-2.068-15.381-1.211c-0.544,0.089-1.168-0.053-1.708-0.23c-2.645-0.869-5.258-1.848-8.097-1.897
		c-0.26-0.005-0.784,0.1-0.638-0.478c0.049-0.193,0.271-0.488,0.414-0.488c2.468-0.002,3.641-2.288,5.659-3.181
		c4.033-1.786,8.985-1.781,11.922-5.848c0.273-0.378,1.044-0.467,1.605-0.555c3.901-0.614,7.528-2.349,11.479-2.767
		c0.96-0.102,1.905-0.468,1.794-1.687c-0.101-1.107-0.983-1.484-1.959-1.644c-1.502-0.245-2.991-0.208-4.461,0.017
		c2.379-0.907,4.795-1.728,7.394-2.087c8.193-1.129,16.021-3.448,22.983-8.236c1.769-1.217,3.528-2.867,5.795-3.065
		c6.112-0.533,11.046-4.068,16.336-6.516c3.865-1.788,8.177-2.457,11.738-4.902c0.245-0.168,0.748-0.261,0.958-0.125
		c0.595,0.387,0.077,0.795-0.144,1.141c-1.43,2.238-2.339,4.782-4.148,6.811c-1.441,1.616,0.445,3.818,2.325,1.924
		c5.533-5.573,13.277-8.08,18.882-13.567c0.521-0.51,1.406-1.249,2.162-0.567c2.223,2.005,5.103,1.985,7.722,2.809
		c3.175,0.998,3.192,1.125,2.97-2.194c-0.188-2.808,1.389-1.298,14.753,1.3c1.351,0.263,2.671,2.161,4.034,0.474
		c1.121-1.387-0.402-2.537-0.972-3.733c-0.317-0.665-0.653-1.427,0.576-1.315c2.878,0.263,5.781-0.301,8.659,0.553
		c9.813,2.911,7.367-1.933,12.583,5.312c0.491,0.682,1.076,1.313,2.014,0.953c1.868-0.716,0.261-3.466-0.268-7.821
		c-0.207-1.705-2.516-3.293-1.826-4.16c0.873-1.097,3.224-0.463,4.9-0.569c4.978-0.314,10.192-1.47,14.468,2.65
		c1.16,1.117,2.493,0.282,2.517-1.381c0.02-1.433-0.683-2.683-1.152-3.987c-1.211-3.363,1.476-5.655,2.475-8.358
		c0.541-1.463,2.065,0.674,3.231,0.214c0.203-0.08,0.461-0.014,0.692-0.03c2.028-0.141,2.894-0.037,3.295,0.871
		c-0.865,0.92-1.73,1.839-2.553,2.798c-1.007,1.173-4.113,4.002-4.258,5.626c-0.272,3.049,4.636,0.575,7.404-0.972
		c0.001,0.018,0.002,0.036,0.002,0.054c-1.149,1.861-2.719,3.402-4.272,4.975c-1.289,1.306-3.47,3.199-3.969,5.081
		c-0.219,0.826-0.098,1.563,0.642,2.044c1.428,0.929,2.141-0.489,3.279-0.852c0.297-0.432,0.669-0.4,1.115,0.098
		c0.111,0.014,0.207,0.031,0.295,0.049c-0.066,0.278-0.103,0.579-0.102,0.812c0.001,0.11-0.008,0.22-0.01,0.33
		c-0.342,0.559-1.016,1.137-1.427,1.588c-1.058,1.162-2.15,2.294-3.277,3.389c-1.086,1.055-3.995,2.766-4.108,4.458
		c-0.066,0.977,0.618,1.532,1.554,1.611c2.337,0.199,3.697-2.859,5.911-2.828c-2.195,2.273-4.585,4.501-6.46,7.009
		c-1.004,1.342-1.734,3.201-0.688,4.741c1.224,1.803,2.544,0.831,4.103,0.183c1.117-0.464,2.291-0.603,3.489-0.62
		c-0.437,1.379-1.44,1.969-3.71,2.285c-13.834,1.923-17.879-1.611-24.686,4.348c-6.093,5.335-9.78,2.337-20.032,6.054
		c-4.003,1.451-8.343,0.612-12.288,2.203c-0.548,0.221-1.384-0.089-2.029-0.316C594.655,258.195,589.078,266.917,578.015,268.518z
		 M697.509,350.191c-0.391-0.099-0.704-0.445-0.536-0.936c1.749-6.565-3.828-12.084-7.732-17.055
		c-0.446,10.804,0.361,7.634-7.518,0.813c3.569,8.462,1.537,12.967,0.371,11.463c-2.059-2.657-4.275-4.886-7.253-6.299
		c0.999,2.954,2.127,6.923,0.164,9.31c-1.956,2.378-5.539,1.161-8.473,0.612c3.728,3.718-5.865,0.177-10.444,0.778
		c0.332,0.728,0.6,1.477,1.055,2.17c1.853,2.826-8.311-0.381-11.583-1.738c5.254,8.356-1.994,1.991-10.169,3.503
		c3.982,8.858,1.216,1.28-27.851-1.408c-8.343-0.772-16.598,0.139-24.725-2.364c-0.851-0.262-0.696-1.557,0.211-1.557
		c7.264-0.002,14.305-0.276,21.484-1.455c5.84-0.959,11.767-0.072,17.621-0.758c-3.247-4.46-12.052-8.576-8.753-9.257
		c7.426-1.531,14.29,4.275,21.465,3.026c-2.7-3.636-18.162-20.631-12.708-18.488c13.572,5.332,25.649,17.762,40.942,14.582
		c-2.906-0.682-13.353-1.124-27.028-12.861c-0.613-0.526,0.041-1.541,0.773-1.325c8.841,2.607,17.235,5.265,26.457,3.793
		c-3.714-4.135-9.141-5.715-14.177-7.814c-0.914-0.381-0.569-1.863,0.422-1.529c7.579,2.555,15.431,3.827,23.321,4.967
		c-2.579-9.432-15.947-20.208-25.331-23.26c-0.967-0.315-0.569-1.803,0.422-1.529c12.425,3.428,22.849,10.452,32.37,18.879
		c-0.846-3.919-2.639-7.498-4.687-10.975c-0.466-0.791,0.604-1.576,1.247-0.961c2.836,2.709,7.183,5.314,9.966,8.67
		c-2.437-11.873-6.739-23.375-12.801-33.875c-0.44-0.761,0.662-1.668,1.247-0.961c8.49,10.259,15.203,22.653,20.133,35.001
		C704.384,333.831,699.69,350.882,697.509,350.191z"/>
</g>
<g id="Layer_1">
</g>
</svg>
